<svg xmlns="http://www.w3.org/2000/svg" viewBox="0 0 256 256" fill="none" role="img" aria-labelledby="asset-file-blend-title"><title id="asset-file-blend-title">BLEND file — custom SVG icon</title><defs>
<radialGradient id="asset-file-blend-orb" cx="30%" cy="25%" r="80%"><stop stop-color="#eee9f2"/><stop offset=".25" stop-color="#d39569"/><stop offset=".65" stop-color="#5e566b"/><stop offset="1" stop-color="#29272e"/></radialGradient>
<filter id="asset-file-blend-shadow" x="-30%" y="-30%" width="160%" height="170%"><feDropShadow dx="0" dy="4" stdDeviation="4" flood-color="#000" flood-opacity=".18"/></filter></defs><g filter="url(#asset-file-blend-shadow)"><g transform="rotate(-16 121 135)"><rect x="56" y="56" width="125" height="154" rx="10" fill="#272727" stroke="#555" stroke-opacity=".4"/><path d="M69 72h51m-51 8h32" stroke="#777" stroke-opacity=".2" stroke-width="2"/></g><g transform="rotate(11 131 139)"><rect x="80" y="47" width="118" height="160" rx="10" fill="#2b2b2b" stroke="#555" stroke-opacity=".4"/></g>
<path d="M76 35h77l40 40v133q0 12-12 12H76q-12 0-12-12V47q0-12 12-12Z" fill="#2d2d2d" stroke="#555555"/>
<path d="M153 35v28q0 12 12 12h28" fill="#303030" stroke="#555555"/>
<path d="M78 49h43m-43 8h26" stroke="#b1b1b1" stroke-opacity=".17" stroke-width="2" stroke-linecap="round"/>
<g transform="translate(103 94) scale(2.0625)" color="#d39569" stroke="currentColor" stroke-width="2" stroke-linecap="round" stroke-linejoin="round" opacity="0.28"><rect x="11" y="3" width="10" height="7" rx="1.5"/><path d="M16 10v7M6 22v-5h20v5"/><rect x="2" y="22" width="9" height="7" rx="1.5"/><rect x="21" y="22" width="9" height="7" rx="1.5"/></g><rect x="53" y="158" width="43" height="43" rx="11" fill="#393939" stroke="#555555"/><rect x="54" y="159" width="41" height="41" rx="10" fill="#d39569" opacity=".12"/><g transform="translate(61 166) scale(0.84375)" color="#d39569" stroke="currentColor" stroke-width="2" stroke-linecap="round" stroke-linejoin="round" opacity="1"><rect x="11" y="3" width="10" height="7" rx="1.5"/><path d="M16 10v7M6 22v-5h20v5"/><rect x="2" y="22" width="9" height="7" rx="1.5"/><rect x="21" y="22" width="9" height="7" rx="1.5"/></g><text x="110" y="183" font-family="Arial, sans-serif" font-size="14" font-weight="600" letter-spacing="1" fill="#d0d0cd">BLEND</text><path d="M111 192h42" stroke="#d39569" stroke-opacity=".35" stroke-width="2" stroke-linecap="round"/></g></svg>