<svg xmlns="http://www.w3.org/2000/svg" viewBox="0 0 256 256" fill="none" role="img" aria-labelledby="asset-folder-scripts-title"><title id="asset-folder-scripts-title">Scripts folder — custom SVG icon</title><defs>
<radialGradient id="asset-folder-scripts-orb" cx="30%" cy="25%" r="80%"><stop stop-color="#eee9f2"/><stop offset=".25" stop-color="#c4b773"/><stop offset=".65" stop-color="#5e566b"/><stop offset="1" stop-color="#29272e"/></radialGradient>
<filter id="asset-folder-scripts-shadow" x="-30%" y="-30%" width="160%" height="170%"><feDropShadow dx="0" dy="4" stdDeviation="4" flood-color="#000" flood-opacity=".18"/></filter></defs><g filter="url(#asset-folder-scripts-shadow)"><rect x="29" y="55" width="195" height="146" rx="20" fill="#303030" stroke="#555555"/>
<g transform="rotate(-5 87 88)"><rect x="45" y="61" width="99" height="112" rx="10" fill="#dededb" stroke="#f3f3ef" stroke-opacity=".4"/><g transform="translate(60 70) scale(0.78125)" color="#787a78" stroke="currentColor" stroke-width="2" stroke-linecap="round" stroke-linejoin="round" opacity="0.45"><path d="m10 8-7 8 7 8m12-16 7 8-7 8M19 5l-6 22"/></g></g><g transform="rotate(9 175 107)"><rect x="130" y="70" width="76" height="104" rx="9" fill="#dededb" stroke="#f6f6f2" stroke-opacity=".5"/><g transform="translate(148 79) scale(0.71875)" color="#797b7a" stroke="currentColor" stroke-width="2" stroke-linecap="round" stroke-linejoin="round" opacity="0.4"><path d="m10 8-7 8 7 8m12-16 7 8-7 8M19 5l-6 22"/></g></g>
<path d="M29 98q0-23 23-23h55q12 0 23 8l16 10q8 5 18 5h41q24 0 24 24v72q0 23-23 23H52q-23 0-23-23Z" fill="#3c3c3c" stroke="#555555"/>
<path d="M51 78h56q11 0 22 8l16 10q9 5 20 5h39" stroke="#fff" stroke-opacity=".09"/>
<path d="M48 212h157" stroke="#000" stroke-opacity=".13"/>
<rect x="44" y="159" width="43" height="43" rx="11" fill="#393939" stroke="#555555"/><rect x="45" y="160" width="41" height="41" rx="10" fill="#c4b773" opacity=".12"/><g transform="translate(52 167) scale(0.84375)" color="#c4b773" stroke="currentColor" stroke-width="2" stroke-linecap="round" stroke-linejoin="round" opacity="1"><path d="m10 8-7 8 7 8m12-16 7 8-7 8M19 5l-6 22"/></g><text x="99" y="178" font-family="Arial, sans-serif" font-size="14" font-weight="500" fill="#dededb">Scripts</text><text x="99" y="194" font-family="Arial, sans-serif" font-size="9" font-weight="400" fill="#969694">240 KB · 32 items</text></g></svg>