<svg width="240" height="240" viewBox="0 0 240 240" xmlns="http://www.w3.org/2000/svg" role="img" aria-labelledby="slate-video-player-title"><title id="slate-video-player-title">Video Player — Slate / NewIcons</title><defs><linearGradient id="slate-video-player--vidFrontGrad" x1="0" y1="0" x2="0" y2="1"><stop offset="0%" stop-color="#363636" stop-opacity="1" /><stop offset="100%" stop-color="#1f1f1f" stop-opacity="1" /></linearGradient><filter id="slate-video-player--vidShadow"><feDropShadow dx="0" dy="12" stdDeviation="15" flood-color="#000" flood-opacity="0.4" /></filter><filter id="slate-video-player--vidBadgeShadow"><feDropShadow dx="0" dy="6" stdDeviation="8" flood-color="#000" flood-opacity="0.5" /></filter></defs><g transform="translate(120, 120)"><g data-slate-layout="main" transform="matrix(1.25902 0 0 1.25902 -19.2 -7.83279)"><g transform="translate(-20, -50)"><rect width="110" height="75" rx="6" fill="#1f1f1f" stroke="#333" stroke-width="1" /><circle cx="12" cy="12" r="2.5" fill="#444" /><circle cx="20" cy="12" r="2.5" fill="#444" /><circle cx="28" cy="12" r="2.5" fill="#444" /></g><g transform="translate(-60, -20)" filter="url(#slate-video-player--vidShadow)"><rect width="110" height="75" rx="6" fill="url(#slate-video-player--vidFrontGrad)" stroke="rgba(255,255,255,0.15)" stroke-width="1.5" /><circle cx="12" cy="12" r="2.5" fill="#666" /><circle cx="20" cy="12" r="2.5" fill="#666" /><circle cx="28" cy="12" r="2.5" fill="#666" /><rect x="10" y="24" width="90" height="35" rx="2" fill="#292929" stroke="#444" stroke-width="1" /><polygon points="50,34 60,41 50,48" fill="#6b7280" /><rect x="10" y="65" width="90" height="4" rx="2" fill="#444" /><rect x="10" y="65" width="40" height="4" rx="2" fill="#9ca3af" /><circle cx="50" cy="67" r="4" fill="#fff" /></g></g><g data-slate-layout="badge" data-corner="right" transform="matrix(0.7931 0 0 0.7931 32.96552 49.62069)"><g transform="translate(25, 20)" filter="url(#slate-video-player--vidBadgeShadow)"><rect width="56" height="40" rx="8" fill="#262626" stroke="rgba(255,255,255,0.15)" stroke-width="1.5" /><g transform="translate(10, 12)" fill="none" stroke="#fff" stroke-width="2" stroke-linecap="round" stroke-linejoin="round"><rect x="2" y="2" width="20" height="14" rx="3" /><polygon points="22,5 30,1 30,17 22,13" /></g></g></g></g></svg>