<svg width="240" height="240" viewBox="0 0 240 240" xmlns="http://www.w3.org/2000/svg" role="img" aria-labelledby="slate-scene-hierarchy-title"><title id="slate-scene-hierarchy-title">Scene Hierarchy — Slate / NewIcons</title><defs><linearGradient id="slate-scene-hierarchy--hierFrontGrad" x1="0" y1="0" x2="0" y2="1"><stop offset="0%" stop-color="#363636" stop-opacity="1" /><stop offset="100%" stop-color="#1f1f1f" stop-opacity="1" /></linearGradient><filter id="slate-scene-hierarchy--hierShadow"><feDropShadow dx="0" dy="12" stdDeviation="15" flood-color="#000" flood-opacity="0.4" /></filter><filter id="slate-scene-hierarchy--hierBadgeShadow"><feDropShadow dx="0" dy="6" stdDeviation="8" flood-color="#000" flood-opacity="0.5" /></filter></defs><g transform="translate(120, 120)"><g data-slate-layout="main" transform="matrix(1.69643 0 0 1.69643 0 -5)"><g filter="url(#slate-scene-hierarchy--hierShadow)"><rect x="-55" y="-55" width="110" height="110" rx="6" fill="url(#slate-scene-hierarchy--hierFrontGrad)" stroke="rgba(255,255,255,0.15)" stroke-width="1.5" /><rect x="-55" y="-55" width="110" height="20" rx="6" fill="#2d2d2d" /><rect x="-45" y="-48" width="30" height="6" rx="3" fill="#fff" opacity="0.8" /><polygon points="-40,-20 -36,-16 -40,-12" fill="#fff" opacity="0.6" /><rect x="-30" y="-19" width="45" height="6" rx="2" fill="#fff" opacity="0.9" /><rect x="-36" y="-5" width="1" height="40" fill="#555" /><rect x="-36" y="-5" width="10" height="1" fill="#555" /><polygon points="-25,-7 -21,-3 -25,1" fill="#fff" opacity="0.6" transform="rotate(90 -23 -3)" /><rect x="-15" y="-6" width="40" height="6" rx="2" fill="#a855f7" /> <rect x="-50" y="-10" width="100" height="14" fill="#a855f7" opacity="0.2" /> <rect x="-21" y="8" width="1" height="10" fill="#555" /><rect x="-21" y="8" width="10" height="1" fill="#555" /><rect x="-5" y="7" width="30" height="6" rx="2" fill="#fff" opacity="0.7" /><rect x="-21" y="18" width="10" height="1" fill="#555" /><rect x="-5" y="17" width="25" height="6" rx="2" fill="#fff" opacity="0.7" /><rect x="-36" y="32" width="10" height="1" fill="#555" /><polygon points="-25,30 -21,34 -25,38" fill="#fff" opacity="0.6" /><rect x="-15" y="31" width="35" height="6" rx="2" fill="#fff" opacity="0.7" /></g></g><g data-slate-layout="badge" data-corner="left" transform="matrix(1.09524 0 0 1.09524 -47.61905 20.2381)"><g transform="translate(-45, 30)" filter="url(#slate-scene-hierarchy--hierBadgeShadow)"><rect width="40" height="40" rx="12" fill="#262626" stroke="rgba(255,255,255,0.15)" stroke-width="1.5" /><g transform="translate(10, 10)" fill="none" stroke="#a855f7" stroke-width="2" stroke-linecap="round" stroke-linejoin="round"><rect x="2" y="2" width="16" height="4" rx="1" /><rect x="6" y="9" width="12" height="4" rx="1" /><rect x="6" y="16" width="12" height="4" rx="1" /><line x1="4" y1="6" x2="4" y2="18" /><line x1="4" y1="11" x2="6" y2="11" /><line x1="4" y1="18" x2="6" y2="18" /></g></g></g></g></svg>