<svg width="240" height="240" viewBox="0 0 240 240" xmlns="http://www.w3.org/2000/svg" role="img" aria-labelledby="slate-script-node-title"><title id="slate-script-node-title">Script Node — Slate / NewIcons</title><defs><linearGradient id="slate-script-node--nodeFrontGrad" x1="0" y1="0" x2="0" y2="1"><stop offset="0%" stop-color="#363636" stop-opacity="1" /><stop offset="100%" stop-color="#1f1f1f" stop-opacity="1" /></linearGradient><linearGradient id="slate-script-node--nodeHeaderGrad" x1="0" y1="0" x2="1" y2="0"><stop offset="0%" stop-color="#3b82f6" /><stop offset="100%" stop-color="#2563eb" /></linearGradient><filter id="slate-script-node--nodeShadow"><feDropShadow dx="0" dy="12" stdDeviation="15" flood-color="#000" flood-opacity="0.4" /></filter><filter id="slate-script-node--nodeBadgeShadow"><feDropShadow dx="0" dy="6" stdDeviation="8" flood-color="#000" flood-opacity="0.5" /></filter></defs><g transform="translate(120, 120)"><g data-slate-layout="main" transform="matrix(1.17073 0 0 1.17073 0 -19.63415)"><path d="M -80 -10 C -40 -10, -30 20, -35 20" fill="none" stroke="#9ca3af" stroke-width="3" stroke-linecap="round" opacity="0.5" /><path d="M -80 30 C -50 30, -30 40, -35 40" fill="none" stroke="#f43f5e" stroke-width="3" stroke-linecap="round" opacity="0.6" /><path d="M 35 25 C 60 25, 60 -5, 80 -5" fill="none" stroke="#10b981" stroke-width="3" stroke-linecap="round" opacity="0.6" /><g filter="url(#slate-script-node--nodeShadow)"><rect x="-45" y="-30" width="90" height="85" rx="8" fill="url(#slate-script-node--nodeFrontGrad)" stroke="rgba(255,255,255,0.15)" stroke-width="1.5" /><path d="M -45 -22 C -45 -26.4, -41.4 -30, -37 -30 L 37 -30 C 41.4 -30, 45 -26.4, 45 -22 L 45 -5 L -45 -5 Z" fill="url(#slate-script-node--nodeHeaderGrad)" /><rect x="-45" y="-30" width="90" height="25" rx="8" fill="none" stroke="rgba(255,255,255,0.2)" stroke-width="1.5" /><rect x="-35" y="-20" width="35" height="6" rx="3" fill="#fff" opacity="0.9" /><circle cx="-45" cy="10" r="5" fill="#9ca3af" stroke="#1f1f1f" stroke-width="2" /><rect x="-35" y="8" width="20" height="4" rx="2" fill="#555" /><circle cx="-45" cy="30" r="5" fill="#f43f5e" stroke="#1f1f1f" stroke-width="2" /><rect x="-35" y="28" width="12" height="4" rx="2" fill="#555" /><circle cx="45" cy="15" r="5" fill="#10b981" stroke="#1f1f1f" stroke-width="2" /><rect x="15" y="13" width="20" height="4" rx="2" fill="#555" /></g></g><g data-slate-layout="badge" data-corner="right" transform="matrix(1.09524 0 0 1.09524 36.66667 102.38095)"><g transform="translate(15, -45)" filter="url(#slate-script-node--nodeBadgeShadow)"><rect width="40" height="40" rx="12" fill="#262626" stroke="rgba(255,255,255,0.15)" stroke-width="1.5" /><g transform="translate(10, 10)" fill="none" stroke="#3b82f6" stroke-width="2" stroke-linecap="round" stroke-linejoin="round"><rect x="3" y="5" width="14" height="10" rx="2" /><line x1="1" y1="8" x2="3" y2="8" /><line x1="1" y1="12" x2="3" y2="12" /><line x1="17" y1="10" x2="19" y2="10" /></g></g></g></g></svg>