<svg xmlns="http://www.w3.org/2000/svg" viewBox="0 0 256 256" fill="none" role="img" aria-labelledby="smoke-title"><title id="smoke-title">Smoke — custom SVG icon</title><defs><radialGradient id="smoke-base" cx="26%" cy="18%" r="90%"><stop stop-color="#d0d1d0"/><stop offset=".35" stop-color="#969ba0"/><stop offset=".72" stop-color="#555f6d"/><stop offset="1" stop-color="#303b4b" stop-opacity=".2"/></radialGradient><radialGradient id="smoke-lobe" cx="33%" cy="24%" r="74%"><stop stop-color="#e0e0d9" stop-opacity=".7"/><stop offset=".5" stop-color="#8b949e" stop-opacity=".35"/><stop offset="1" stop-color="#3a475a" stop-opacity="0"/></radialGradient><linearGradient id="smoke-fade" x2="0" y2="1"><stop offset=".65" stop-color="white"/><stop offset="1" stop-color="white" stop-opacity=".12"/></linearGradient><mask id="smoke-mask"><rect width="256" height="256" fill="url(#smoke-fade)"/></mask><clipPath id="smoke-clip"><path d="M99 220c-23-2-33-20-23-35-27-7-33-35-14-50-22-20-8-50 18-50-9-24 8-46 31-43 8-23 41-24 54-3 23-2 39 24 24 43 23 16 14 44-8 51 18 22 2 48-20 48 9 19-5 36-24 39Z"/></clipPath><filter id="smoke-edge" x="-15%" y="-15%" width="130%" height="130%"><feTurbulence baseFrequency=".045" numOctaves="3" seed="28" result="noise"/><feDisplacementMap in="SourceGraphic" in2="noise" scale="5"/><feGaussianBlur stdDeviation=".8"/></filter></defs><g mask="url(#smoke-mask)" filter="url(#smoke-edge)"><path d="M99 220c-23-2-33-20-23-35-27-7-33-35-14-50-22-20-8-50 18-50-9-24 8-46 31-43 8-23 41-24 54-3 23-2 39 24 24 43 23 16 14 44-8 51 18 22 2 48-20 48 9 19-5 36-24 39Z" fill="url(#smoke-base)"/><g clip-path="url(#smoke-clip)"><circle r="43" transform="translate(133 53) scale(1 0.813953488372093)" fill="url(#smoke-lobe)"/><circle r="43" transform="translate(93 89) scale(1 0.8604651162790697)" fill="url(#smoke-lobe)"/><circle r="40" transform="translate(160 87) scale(1 0.975)" fill="url(#smoke-lobe)"/><circle r="36" transform="translate(81 135) scale(1 1.1111111111111112)" fill="url(#smoke-lobe)"/><circle r="45" transform="translate(134 124) scale(1 1.0666666666666667)" fill="url(#smoke-lobe)"/><circle r="34" transform="translate(149 161) scale(1 1.2058823529411764)" fill="url(#smoke-lobe)"/><circle r="32" transform="translate(111 187) scale(1 1.125)" fill="url(#smoke-lobe)"/></g></g></svg>