<!-- frontier-source-fnv1a64:b20281e762724155 -->
<svg xmlns="http://www.w3.org/2000/svg" width="240" height="240" viewBox="0 0 240 240" role="img" aria-labelledby="slate-live-broadcast-title"><title id="slate-live-broadcast-title">Live Broadcast — Slate / NewIcons</title><defs><linearGradient id="slate-live-broadcast--liveFrontGrad" x1="0" y1="0" x2="0" y2="1"><stop offset="0%" stop-color="#363636" stop-opacity="1" /><stop offset="100%" stop-color="#1f1f1f" stop-opacity="1" /></linearGradient><filter id="frontier-shadow-1" x="-100%" y="-100%" width="300%" height="300%"><feGaussianBlur stdDeviation="15" /></filter><linearGradient id="frontier-shadow-gradient-1-0" x1="0" y1="0" x2="0" y2="1"><stop offset="0%" stop-color="#000" stop-opacity="1" /><stop offset="100%" stop-color="#000" stop-opacity="1" /></linearGradient><filter id="frontier-shadow-2" x="-100%" y="-100%" width="300%" height="300%"><feGaussianBlur stdDeviation="8" /></filter></defs><g transform="translate(120, 120)"><g data-slate-layout="main" transform="matrix(1.45455 0 0 1.45455 0 -5)"><g transform="translate(-65, -40)"><g transform="translate(0 12)" opacity="0.4" filter="url(#frontier-shadow-1)"><g><rect width="130" height="80" rx="6" fill="url(#frontier-shadow-gradient-1-0)" stroke="#000" stroke-width="1.5" stroke-opacity="0.150000" /><rect x="8" y="8" width="84" height="64" rx="4" fill="#000" stroke="#000" stroke-width="1" /><circle cx="50" cy="40" r="14" fill="#000" /><rect x="14" y="14" width="22" height="10" rx="2" fill="#000" /><circle cx="20" cy="19" r="2" fill="#000" /><path d="M 26 19 H 30 M 26 17 H 28" stroke="#000" stroke-width="1" stroke-linecap="round" /><rect x="98" y="8" width="24" height="64" rx="4" fill="#000" /><rect x="102" y="14" width="16" height="3" rx="1.5" fill="#000" /><rect x="102" y="21" width="12" height="3" rx="1.5" fill="#000" /><rect x="102" y="28" width="14" height="3" rx="1.5" fill="#000" /><rect x="102" y="35" width="10" height="3" rx="1.5" fill="#000" /><rect x="102" y="60" width="16" height="6" rx="2" fill="#000" /></g></g><g><rect width="130" height="80" rx="6" fill="url(#slate-live-broadcast--liveFrontGrad)" stroke="#ffffff" stroke-width="1.5" stroke-opacity="0.150000" /><rect x="8" y="8" width="84" height="64" rx="4" fill="#2a2a2a" stroke="#3a3a3a" stroke-width="1" /><circle cx="50" cy="40" r="14" fill="#4b5563" /><rect x="14" y="14" width="22" height="10" rx="2" fill="#ef4444" /><circle cx="20" cy="19" r="2" fill="#fff" /><path d="M 26 19 H 30 M 26 17 H 28" stroke="#fff" stroke-width="1" stroke-linecap="round" /><rect x="98" y="8" width="24" height="64" rx="4" fill="#242424" /><rect x="102" y="14" width="16" height="3" rx="1.5" fill="#4b5563" /><rect x="102" y="21" width="12" height="3" rx="1.5" fill="#4b5563" /><rect x="102" y="28" width="14" height="3" rx="1.5" fill="#4b5563" /><rect x="102" y="35" width="10" height="3" rx="1.5" fill="#4b5563" /><rect x="102" y="60" width="16" height="6" rx="2" fill="#374151" /></g></g></g><g data-slate-layout="badge" data-corner="left" transform="matrix(0.92 0 0 0.92 -60.28 34.52)"><g transform="translate(-40, 20)"><g transform="translate(0 6)" opacity="0.5" filter="url(#frontier-shadow-2)"><g><rect width="48" height="48" rx="12" fill="#000" stroke="#000" stroke-width="1.5" stroke-opacity="0.150000" /><g transform="translate(12, 12)" fill="none" stroke="#000" stroke-width="2" stroke-linecap="round"><circle cx="12" cy="12" r="2.5" fill="#000" /><path d="M 6 12 A 6 6 0 0 0 6 22 M 18 12 A 6 6 0 0 1 18 22" transform="translate(0, -5)" /><path d="M 2 12 A 10 10 0 0 0 2 28 M 22 12 A 10 10 0 0 1 22 28" transform="translate(0, -8)" /></g></g></g><g><rect width="48" height="48" rx="12" fill="#262626" stroke="#ffffff" stroke-width="1.5" stroke-opacity="0.150000" /><g transform="translate(12, 12)" fill="none" stroke="#fff" stroke-width="2" stroke-linecap="round"><circle cx="12" cy="12" r="2.5" fill="#fff" /><path d="M 6 12 A 6 6 0 0 0 6 22 M 18 12 A 6 6 0 0 1 18 22" transform="translate(0, -5)" /><path d="M 2 12 A 10 10 0 0 0 2 28 M 22 12 A 10 10 0 0 1 22 28" transform="translate(0, -8)" /></g></g></g></g></g></svg>
