<svg xmlns="http://www.w3.org/2000/svg" viewBox="0 0 256 256" fill="none" role="img" aria-labelledby="ram-2d-title"><title id="ram-2d-title">RAM · 2D — custom SVG icon</title><defs></defs><path d="M34 91h188v23h-6v14h6v37H34v-37h6v-14h-6Z" fill="#548f77"/><path d="M46 165h88v16H46Zm99 0h65v16h-65Z" fill="#d8b76c"/><rect x="57" y="107" width="36" height="42" rx="4" fill="#263d40"/><rect x="105" y="107" width="36" height="42" rx="4" fill="#263d40"/><rect x="153" y="107" width="36" height="42" rx="4" fill="#263d40"/><path d="M58 168v10" stroke="#548f77" stroke-width="2"/><path d="M72 168v10" stroke="#548f77" stroke-width="2"/><path d="M86 168v10" stroke="#548f77" stroke-width="2"/><path d="M100 168v10" stroke="#548f77" stroke-width="2"/><path d="M114 168v10" stroke="#548f77" stroke-width="2"/><path d="M158 168v10" stroke="#548f77" stroke-width="2"/><path d="M172 168v10" stroke="#548f77" stroke-width="2"/><path d="M186 168v10" stroke="#548f77" stroke-width="2"/><path d="M200 168v10" stroke="#548f77" stroke-width="2"/></svg>