{"asset":{"version":"2.0","generator":"Frontier SceneCodec"},"extensionsUsed":["KHR_materials_specular","KHR_materials_emissive_strength"],"scene":0,"scenes":[{"nodes":[0]}],"nodes":[{"mesh":0,"name":"CornellBox"}],"meshes":[{"name":"CornellBox","primitives":[{"attributes":{"POSITION":0,"NORMAL":1},"indices":2,"material":0,"mode":4},{"attributes":{"POSITION":3,"NORMAL":4},"indices":5,"material":1,"mode":4},{"attributes":{"POSITION":6,"NORMAL":7},"indices":8,"material":2,"mode":4},{"attributes":{"POSITION":9,"NORMAL":10},"indices":11,"material":3,"mode":4},{"attributes":{"POSITION":12,"NORMAL":13},"indices":14,"material":4,"mode":4},{"attributes":{"POSITION":15,"NORMAL":16},"indices":17,"material":5,"mode":4}]}],"materials":[{"name":"material_0","pbrMetallicRoughness":{"baseColorFactor":[0.75,0.75,0.75,1.0],"metallicFactor":0.0,"roughnessFactor":0.5},"extensions":{"KHR_materials_specular":{"specularFactor":0.0,"specularColorFactor":[1.0,1.0,1.0]}}},{"name":"material_1","pbrMetallicRoughness":{"baseColorFactor":[0.850000024,0.119999997,0.119999997,1.0],"metallicFactor":0.0,"roughnessFactor":0.5},"extensions":{"KHR_materials_specular":{"specularFactor":0.0,"specularColorFactor":[1.0,1.0,1.0]}}},{"name":"material_2","pbrMetallicRoughness":{"baseColorFactor":[0.119999997,0.850000024,0.150000006,1.0],"metallicFactor":0.0,"roughnessFactor":0.5},"extensions":{"KHR_materials_specular":{"specularFactor":0.0,"specularColorFactor":[1.0,1.0,1.0]}}},{"name":"material_3","pbrMetallicRoughness":{"baseColorFactor":[1.0,1.0,1.0,1.0],"metallicFactor":0.0,"roughnessFactor":0.100000001},"emissiveFactor":[1.0,1.0,1.0],"extensions":{"KHR_materials_emissive_strength":{"emissiveStrength":32.0},"KHR_materials_specular":{"specularFactor":0.0,"specularColorFactor":[1.0,1.0,1.0]}}},{"name":"material_4","pbrMetallicRoughness":{"baseColorFactor":[0.779999971,0.779999971,0.779999971,1.0],"metallicFactor":0.0,"roughnessFactor":0.400000006},"extensions":{"KHR_materials_specular":{"specularFactor":0.0,"specularColorFactor":[1.0,1.0,1.0]}}},{"name":"material_5","pbrMetallicRoughness":{"baseColorFactor":[0.779999971,0.779999971,0.779999971,1.0],"metallicFactor":0.0,"roughnessFactor":0.400000006},"extensions":{"KHR_materials_specular":{"specularFactor":0.0,"specularColorFactor":[1.0,1.0,1.0]}}}],"accessors":[{"bufferView":0,"componentType":5126,"count":36,"type":"VEC3","min":[-2.0,0.0,-4.0],"max":[2.0,3.0,-0.0]},{"bufferView":1,"componentType":5126,"count":36,"type":"VEC3"},{"bufferView":2,"componentType":5125,"count":36,"type":"SCALAR"},{"bufferView":3,"componentType":5126,"count":6,"type":"VEC3","min":[-2.0,0.0,-4.0],"max":[-2.0,3.0,-0.0]},{"bufferView":4,"componentType":5126,"count":6,"type":"VEC3"},{"bufferView":5,"componentType":5125,"count":6,"type":"SCALAR"},{"bufferView":6,"componentType":5126,"count":6,"type":"VEC3","min":[2.0,0.0,-4.0],"max":[2.0,3.0,-0.0]},{"bufferView":7,"componentType":5126,"count":6,"type":"VEC3"},{"bufferView":8,"componentType":5125,"count":6,"type":"SCALAR"},{"bufferView":9,"componentType":5126,"count":6,"type":"VEC3","min":[-0.5,2.99499989,-1.70000005],"max":[0.5,2.99499989,-0.899999976]},{"bufferView":10,"componentType":5126,"count":6,"type":"VEC3"},{"bufferView":11,"componentType":5125,"count":6,"type":"SCALAR"},{"bufferView":12,"componentType":5126,"count":36,"type":"VEC3","min":[-1.44675195,0.0,-3.24675202],"max":[-0.353248,1.79999995,-2.15324807]},{"bufferView":13,"componentType":5126,"count":36,"type":"VEC3"},{"bufferView":14,"componentType":5125,"count":36,"type":"SCALAR"},{"bufferView":15,"componentType":5126,"count":36,"type":"VEC3","min":[0.320769131,0.0,-2.02923083],"max":[1.37923098,0.899999976,-0.970769107]},{"bufferView":16,"componentType":5126,"count":36,"type":"VEC3"},{"bufferView":17,"componentType":5125,"count":36,"type":"SCALAR"}],"bufferViews":[{"buffer":0,"byteOffset":0,"byteLength":432,"target":34962},{"buffer":0,"byteOffset":432,"byteLength":432,"target":34962},{"buffer":0,"byteOffset":864,"byteLength":144,"target":34963},{"buffer":0,"byteOffset":1008,"byteLength":72,"target":34962},{"buffer":0,"byteOffset":1080,"byteLength":72,"target":34962},{"buffer":0,"byteOffset":1152,"byteLength":24,"target":34963},{"buffer":0,"byteOffset":1176,"byteLength":72,"target":34962},{"buffer":0,"byteOffset":1248,"byteLength":72,"target":34962},{"buffer":0,"byteOffset":1320,"byteLength":24,"target":34963},{"buffer":0,"byteOffset":1344,"byteLength":72,"target":34962},{"buffer":0,"byteOffset":1416,"byteLength":72,"target":34962},{"buffer":0,"byteOffset":1488,"byteLength":24,"target":34963},{"buffer":0,"byteOffset":1512,"byteLength":432,"target":34962},{"buffer":0,"byteOffset":1944,"byteLength":432,"target":34962},{"buffer":0,"byteOffset":2376,"byteLength":144,"target":34963},{"buffer":0,"byteOffset":2520,"byteLength":432,"target":34962},{"buffer":0,"byteOffset":2952,"byteLength":432,"target":34962},{"buffer":0,"byteOffset":3384,"byteLength":144,"target":34963}],"buffers":[{"byteLength":3528,"uri":"data:application/octet-stream;base64,"}]}
