{"asset":{"version":"2.0","generator":"Frontier SceneCodec"},"extensionsUsed":["KHR_materials_specular","KHR_materials_emissive_strength"],"scene":0,"scenes":[{"name":"CornellBox","nodes":[0,1,2,3,4,5,6,7,8,9,10]}],"nodes":[{"mesh":0,"name":"Floor"},{"mesh":1,"name":"Ceiling"},{"mesh":2,"name":"Back Wall"},{"mesh":3,"name":"Left Wall"},{"mesh":4,"name":"Right Wall"},{"mesh":5,"name":"Tall Box","extras":{"frontier_dynamic":1}},{"mesh":6,"name":"Short Box","extras":{"frontier_dynamic":1}},{"mesh":7,"name":"Sphere","extras":{"frontier_dynamic":1}},{"mesh":8,"name":"Cone","extras":{"frontier_dynamic":1}},{"mesh":9,"name":"Torus","extras":{"frontier_dynamic":1}},{"mesh":10,"name":"Ceiling Luminaire"}],"meshes":[{"name":"Floor","primitives":[{"attributes":{"POSITION":0,"NORMAL":1},"indices":2,"material":0,"mode":4}]},{"name":"Ceiling","primitives":[{"attributes":{"POSITION":3,"NORMAL":4},"indices":5,"material":0,"mode":4}]},{"name":"Back Wall","primitives":[{"attributes":{"POSITION":6,"NORMAL":7},"indices":8,"material":0,"mode":4}]},{"name":"Left Wall","primitives":[{"attributes":{"POSITION":9,"NORMAL":10},"indices":11,"material":1,"mode":4}]},{"name":"Right Wall","primitives":[{"attributes":{"POSITION":12,"NORMAL":13},"indices":14,"material":2,"mode":4}]},{"name":"Tall Box","primitives":[{"attributes":{"POSITION":15,"NORMAL":16},"indices":17,"material":4,"mode":4}]},{"name":"Short Box","primitives":[{"attributes":{"POSITION":18,"NORMAL":19},"indices":20,"material":5,"mode":4}]},{"name":"Sphere","primitives":[{"attributes":{"POSITION":21,"NORMAL":22},"indices":23,"material":6,"mode":4}]},{"name":"Cone","primitives":[{"attributes":{"POSITION":24,"NORMAL":25},"indices":26,"material":7,"mode":4}]},{"name":"Torus","primitives":[{"attributes":{"POSITION":27,"NORMAL":28},"indices":29,"material":8,"mode":4}]},{"name":"Ceiling Luminaire","primitives":[{"attributes":{"POSITION":30,"NORMAL":31},"indices":32,"material":3,"mode":4}]}],"materials":[{"name":"material_0","pbrMetallicRoughness":{"baseColorFactor":[0.75,0.75,0.75,1.0],"metallicFactor":0.0,"roughnessFactor":0.5},"extensions":{"KHR_materials_specular":{"specularFactor":0.0,"specularColorFactor":[1.0,1.0,1.0]}}},{"name":"material_1","pbrMetallicRoughness":{"baseColorFactor":[0.850000024,0.119999997,0.119999997,1.0],"metallicFactor":0.0,"roughnessFactor":0.5},"extensions":{"KHR_materials_specular":{"specularFactor":0.0,"specularColorFactor":[1.0,1.0,1.0]}}},{"name":"material_2","pbrMetallicRoughness":{"baseColorFactor":[0.119999997,0.850000024,0.150000006,1.0],"metallicFactor":0.0,"roughnessFactor":0.5},"extensions":{"KHR_materials_specular":{"specularFactor":0.0,"specularColorFactor":[1.0,1.0,1.0]}}},{"name":"material_3","pbrMetallicRoughness":{"baseColorFactor":[1.0,1.0,1.0,1.0],"metallicFactor":0.0,"roughnessFactor":0.100000001},"emissiveFactor":[1.0,1.0,1.0],"extensions":{"KHR_materials_emissive_strength":{"emissiveStrength":32.0},"KHR_materials_specular":{"specularFactor":0.0,"specularColorFactor":[1.0,1.0,1.0]}}},{"name":"material_4","pbrMetallicRoughness":{"baseColorFactor":[0.779999971,0.779999971,0.779999971,1.0],"metallicFactor":0.0,"roughnessFactor":0.400000006},"extensions":{"KHR_materials_specular":{"specularFactor":0.0,"specularColorFactor":[1.0,1.0,1.0]}}},{"name":"material_5","pbrMetallicRoughness":{"baseColorFactor":[0.779999971,0.779999971,0.779999971,1.0],"metallicFactor":0.0,"roughnessFactor":0.400000006},"extensions":{"KHR_materials_specular":{"specularFactor":0.0,"specularColorFactor":[1.0,1.0,1.0]}}},{"name":"material_6","pbrMetallicRoughness":{"baseColorFactor":[0.819999993,0.779999971,0.720000029,1.0],"metallicFactor":0.0,"roughnessFactor":0.25},"extensions":{"KHR_materials_specular":{"specularFactor":0.0,"specularColorFactor":[1.0,1.0,1.0]}}},{"name":"material_7","pbrMetallicRoughness":{"baseColorFactor":[0.349999994,0.449999988,0.699999988,1.0],"metallicFactor":0.0,"roughnessFactor":0.400000006},"extensions":{"KHR_materials_specular":{"specularFactor":0.0,"specularColorFactor":[1.0,1.0,1.0]}}},{"name":"material_8","pbrMetallicRoughness":{"baseColorFactor":[0.779999971,0.550000012,0.25,1.0],"metallicFactor":0.0,"roughnessFactor":0.349999994},"extensions":{"KHR_materials_specular":{"specularFactor":0.0,"specularColorFactor":[1.0,1.0,1.0]}}}],"accessors":[{"bufferView":0,"componentType":5126,"count":6,"type":"VEC3","min":[-2.0,0.0,-4.0],"max":[2.0,0.0,-0.0]},{"bufferView":1,"componentType":5126,"count":6,"type":"VEC3"},{"bufferView":2,"componentType":5125,"count":6,"type":"SCALAR"},{"bufferView":3,"componentType":5126,"count":288,"type":"VEC3","min":[-2.0,3.0,-4.0],"max":[2.0,3.0,-0.0]},{"bufferView":4,"componentType":5126,"count":288,"type":"VEC3"},{"bufferView":5,"componentType":5125,"count":288,"type":"SCALAR"},{"bufferView":6,"componentType":5126,"count":6,"type":"VEC3","min":[-2.0,0.0,-4.0],"max":[2.0,3.0,-4.0]},{"bufferView":7,"componentType":5126,"count":6,"type":"VEC3"},{"bufferView":8,"componentType":5125,"count":6,"type":"SCALAR"},{"bufferView":9,"componentType":5126,"count":6,"type":"VEC3","min":[-2.0,0.0,-4.0],"max":[-2.0,3.0,-0.0]},{"bufferView":10,"componentType":5126,"count":6,"type":"VEC3"},{"bufferView":11,"componentType":5125,"count":6,"type":"SCALAR"},{"bufferView":12,"componentType":5126,"count":6,"type":"VEC3","min":[2.0,0.0,-4.0],"max":[2.0,3.0,-0.0]},{"bufferView":13,"componentType":5126,"count":6,"type":"VEC3"},{"bufferView":14,"componentType":5125,"count":6,"type":"SCALAR"},{"bufferView":15,"componentType":5126,"count":36,"type":"VEC3","min":[-1.44675195,0.0,-3.24675202],"max":[-0.353248,1.79999995,-2.15324807]},{"bufferView":16,"componentType":5126,"count":36,"type":"VEC3"},{"bufferView":17,"componentType":5125,"count":36,"type":"SCALAR"},{"bufferView":18,"componentType":5126,"count":36,"type":"VEC3","min":[0.320769131,0.0,-2.02923083],"max":[1.37923098,0.899999976,-0.970769107]},{"bufferView":19,"componentType":5126,"count":36,"type":"VEC3"},{"bufferView":20,"componentType":5125,"count":36,"type":"SCALAR"},{"bufferView":21,"componentType":5126,"count":2880,"type":"VEC3","min":[-1.5999999,0.0,-1.5],"max":[-0.699999988,0.899999976,-0.599999964]},{"bufferView":22,"componentType":5126,"count":2880,"type":"VEC3"},{"bufferView":23,"componentType":5125,"count":2880,"type":"SCALAR"},{"bufferView":24,"componentType":5126,"count":192,"type":"VEC3","min":[0.849999964,0.0,-3.5],"max":[1.75,1.10000002,-2.5999999]},{"bufferView":25,"componentType":5126,"count":192,"type":"VEC3"},{"bufferView":26,"componentType":5125,"count":192,"type":"SCALAR"},{"bufferView":27,"componentType":5126,"count":3888,"type":"VEC3","min":[-0.560000002,0.182126895,-2.1099999],"max":[0.560000002,0.457873106,-0.98999995]},{"bufferView":28,"componentType":5126,"count":3888,"type":"VEC3"},{"bufferView":29,"componentType":5125,"count":3888,"type":"SCALAR"},{"bufferView":30,"componentType":5126,"count":6,"type":"VEC3","min":[-0.5,2.99499989,-1.14999998],"max":[0.5,2.99499989,-0.349999994]},{"bufferView":31,"componentType":5126,"count":6,"type":"VEC3"},{"bufferView":32,"componentType":5125,"count":6,"type":"SCALAR"}],"bufferViews":[{"buffer":0,"byteOffset":0,"byteLength":72,"target":34962},{"buffer":0,"byteOffset":72,"byteLength":72,"target":34962},{"buffer":0,"byteOffset":144,"byteLength":24,"target":34963},{"buffer":0,"byteOffset":168,"byteLength":3456,"target":34962},{"buffer":0,"byteOffset":3624,"byteLength":3456,"target":34962},{"buffer":0,"byteOffset":7080,"byteLength":1152,"target":34963},{"buffer":0,"byteOffset":8232,"byteLength":72,"target":34962},{"buffer":0,"byteOffset":8304,"byteLength":72,"target":34962},{"buffer":0,"byteOffset":8376,"byteLength":24,"target":34963},{"buffer":0,"byteOffset":8400,"byteLength":72,"target":34962},{"buffer":0,"byteOffset":8472,"byteLength":72,"target":34962},{"buffer":0,"byteOffset":8544,"byteLength":24,"target":34963},{"buffer":0,"byteOffset":8568,"byteLength":72,"target":34962},{"buffer":0,"byteOffset":8640,"byteLength":72,"target":34962},{"buffer":0,"byteOffset":8712,"byteLength":24,"target":34963},{"buffer":0,"byteOffset":8736,"byteLength":432,"target":34962},{"buffer":0,"byteOffset":9168,"byteLength":432,"target":34962},{"buffer":0,"byteOffset":9600,"byteLength":144,"target":34963},{"buffer":0,"byteOffset":9744,"byteLength":432,"target":34962},{"buffer":0,"byteOffset":10176,"byteLength":432,"target":34962},{"buffer":0,"byteOffset":10608,"byteLength":144,"target":34963},{"buffer":0,"byteOffset":10752,"byteLength":34560,"target":34962},{"buffer":0,"byteOffset":45312,"byteLength":34560,"target":34962},{"buffer":0,"byteOffset":79872,"byteLength":11520,"target":34963},{"buffer":0,"byteOffset":91392,"byteLength":2304,"target":34962},{"buffer":0,"byteOffset":93696,"byteLength":2304,"target":34962},{"buffer":0,"byteOffset":96000,"byteLength":768,"target":34963},{"buffer":0,"byteOffset":96768,"byteLength":46656,"target":34962},{"buffer":0,"byteOffset":143424,"byteLength":46656,"target":34962},{"buffer":0,"byteOffset":190080,"byteLength":15552,"target":34963},{"buffer":0,"byteOffset":205632,"byteLength":72,"target":34962},{"buffer":0,"byteOffset":205704,"byteLength":72,"target":34962},{"buffer":0,"byteOffset":205776,"byteLength":24,"target":34963}],"buffers":[{"byteLength":205800,"uri":"data:application/octet-stream;base64,"}]}
